<svg width="14" height="18" viewBox="0 0 14 8" xmlns="http://www.w3.org/2000/svg">
<path fill-rule="evenodd" clip-rule="evenodd" d="M13.1336 0.203432L6.6336 7.12389L6.57835 7.19442C6.45066 7.39188 6.4799 7.65735 6.65978 7.82248C6.86213 8.00825 7.1785 7.99666 7.3664 7.79661L13.8664 0.876151L13.9216 0.80562C14.0493 0.608158 14.0201 0.342684 13.8402 0.177558C13.6379 -0.0082078 13.3215 0.0033763 13.1336 0.203432ZM9.63521 0.201735L3.43573 6.7404L0.862149 4.06762L0.794346 4.00876C0.602859 3.8706 0.333042 3.8831 0.155256 4.05042C-0.0447525 4.23865 -0.0525441 4.55154 0.137853 4.74928L3.07639 7.80107L3.14702 7.86199C3.34667 8.00399 3.62866 7.98252 3.80333 7.7983L10.3648 0.877848L10.4204 0.807574C10.549 0.610707 10.521 0.3451 10.3419 0.179141C10.1405 -0.00756184 9.82405 0.00255375 9.63521 0.201735Z" />
</svg>
