<svg width="80" height="53" viewBox="0 0 80 53" fill="none" xmlns="http://www.w3.org/2000/svg">
<path fill-rule="evenodd" clip-rule="evenodd" d="M28.2656 0C22.0933 0 17.5194 1.15659 14.5439 3.46978C11.5684 5.75755 10.0807 9.27818 10.0807 14.0317C10.0807 17.4125 11.1012 20.1959 13.1422 22.382C15.1833 24.5427 18.2325 26.0806 22.29 26.9957C20.3965 27.5295 18.8104 28.2285 17.5317 29.0928C16.253 29.9317 15.2448 30.9866 14.507 32.2576C13.6709 33.6556 12.9578 35.7146 12.3676 38.4345C11.7774 41.129 11.3102 42.9211 10.9659 43.8108C10.2036 45.946 9.15852 47.4077 7.83061 48.1957C6.5027 48.9583 4.27723 49.3396 1.15419 49.3396H0.490234V52.3137C1.62141 52.5424 2.66653 52.7077 3.62557 52.8094C4.58461 52.9365 5.49448 53 6.35516 53C8.10111 53 9.60115 52.8094 10.8553 52.4281C12.0848 52.0722 13.1299 51.513 13.9906 50.7504C15.7858 49.1235 17.2735 45.946 18.4539 41.218C18.8965 39.5149 19.2531 38.2439 19.5236 37.405C20.5318 34.2276 21.8966 32.0288 23.618 30.8086C25.3147 29.5885 27.8968 28.9784 31.3641 28.9784C32.0879 28.9784 33.238 29.0151 34.8142 29.0885V47.7L33.5232 48.8058L29.2443 49.1871V52.3899H47.5768V49.1871L42.8923 48.8058L41.6013 47.7V29.0928H67.6061V47.7L66.3151 48.8058L61.6305 49.1871V52.3899H79.9999V49.1871L75.6842 48.8058L74.3932 47.7V4.68993L75.6842 3.58417L79.9999 3.12662V0H61.6305V3.12662L66.3151 3.58417L67.6061 4.68993V25.3678H41.6013V4.68993L42.8923 3.58417L47.5768 3.12662V0H28.2656ZM33.5232 3.58417L34.8142 4.68993V25.3678C34.1787 25.3894 33.5697 25.4109 32.9871 25.4324H30.9952C26.3229 25.4324 22.9294 24.5808 20.8146 22.8777C18.6752 21.1746 17.6055 18.442 17.6055 14.6799C17.6055 10.7906 18.6998 7.96907 20.8884 6.21511C23.077 4.46115 26.618 3.58417 31.5116 3.58417H33.5232Z" fill="#0F172A"/>
</svg>
