<svg width="17" height="17" viewBox="0 0 17 17" fill="none" xmlns="http://www.w3.org/2000/svg">
<path fill-rule="evenodd" clip-rule="evenodd" d="M10.7266 4.09665L4.16285 11.3124L1.28033 8.42992L1.19621 8.3573C0.9026 8.13944 0.485936 8.16365 0.21967 8.42992C-0.0732233 8.72281 -0.0732233 9.19768 0.21967 9.49058L3.65821 12.9291L3.74522 13.0039C4.04911 13.2272 4.48145 13.1914 4.74334 12.9035L11.8362 5.10599L11.9048 5.01854C12.1085 4.71496 12.0646 4.2999 11.7861 4.04652C11.4797 3.7678 11.0053 3.79024 10.7266 4.09665ZM15.2881 4.09665L8.1952 11.8941L8.12663 11.9816C7.9229 12.2852 7.96677 12.7002 8.24533 12.9536C8.55174 13.2323 9.02608 13.2099 9.3048 12.9035L16.3977 5.10599L16.4662 5.01854C16.67 4.71496 16.6261 4.2999 16.3475 4.04652C16.0411 3.7678 15.5668 3.79024 15.2881 4.09665Z" fill="#6EE7B7"/>
</svg>
