<svg width="20" height="16" viewBox="0 0 20 16" fill="none" xmlns="http://www.w3.org/2000/svg">
<path d="M19.8172 6.93365L13.5673 0.682498C13.3885 0.503751 13.1223 0.451252 12.886 0.5475C12.6523 0.643749 12.4998 0.872495 12.4998 1.12499V4.24994H10.6248C4.76618 4.24994 0 9.01612 0 14.8748C0 15.1535 0.184997 15.3985 0.452493 15.4748C0.509992 15.4923 0.567491 15.4998 0.62499 15.4998C0.836237 15.4998 1.03873 15.3923 1.15498 15.206L1.34248 14.906C3.0387 12.1886 6.0824 10.4998 9.28735 10.4998H12.4998V13.6248C12.4998 13.8773 12.6523 14.106 12.886 14.2023C13.121 14.2973 13.3885 14.2448 13.5673 14.0673L19.8172 7.81739C20.0609 7.57364 20.0609 7.1774 19.8172 6.93365ZM13.7498 12.1161V9.87486C13.7498 9.52986 13.4698 9.24986 13.1248 9.24986H9.28735C6.33865 9.24986 3.5087 10.5111 1.52123 12.6336C2.52746 8.54363 6.2274 5.49992 10.6248 5.49992H13.1248C13.4698 5.49992 13.7498 5.21993 13.7498 4.87493V2.63372L18.491 7.37489L13.7498 12.1161Z" fill="#94A3B8"/>
</svg>
