<svg width="168" height="19" viewBox="0 0 168 19" fill="none" xmlns="http://www.w3.org/2000/svg">
<path d="M5.05078 3.26953L5.0625 9.52734C5.16406 9.53516 5.27344 9.54297 5.39062 9.55078C5.51562 9.55078 5.69141 9.55078 5.91797 9.55078C7.21484 9.55078 8.17188 9.28906 8.78906 8.76562C9.40625 8.24219 9.71484 7.43359 9.71484 6.33984C9.71484 5.33984 9.41016 4.57812 8.80078 4.05469C8.19141 3.53125 7.3125 3.26953 6.16406 3.26953H5.05078ZM0.128906 1.89844H7.42969C9.27344 1.89844 10.6719 2.24609 11.625 2.94141C12.5859 3.63672 13.0664 4.65625 13.0664 6C13.0664 7.10156 12.7188 8 12.0234 8.69531C11.3281 9.38281 10.3008 9.85156 8.94141 10.1016C9.53516 10.2422 10.0352 10.4336 10.4414 10.6758C10.8555 10.9102 11.1953 11.2148 11.4609 11.5898C11.7969 12.0742 12.1328 12.8711 12.4688 13.9805C12.6328 14.5039 12.7617 14.8906 12.8555 15.1406C13.0977 15.7734 13.418 16.2148 13.8164 16.4648C14.2227 16.707 14.8477 16.8281 15.6914 16.8281H15.9961V17.9766C15.5508 18.0391 15.125 18.0859 14.7188 18.1172C14.3203 18.1484 13.9453 18.1641 13.5938 18.1641C13.1016 18.1641 12.6367 18.1016 12.1992 17.9766C11.7695 17.8438 11.4023 17.6602 11.0977 17.4258C10.3711 16.8633 9.80078 15.9375 9.38672 14.6484C9.33203 14.4688 9.28906 14.3281 9.25781 14.2266C8.80469 12.8594 8.31641 11.9688 7.79297 11.5547C7.26953 11.1328 6.49219 10.9219 5.46094 10.9219H5.05078V16.3242L5.4375 16.6992L6.90234 16.8281V18H0.128906V16.8281L1.54688 16.6992L1.93359 16.3242V3.52734L1.54688 3.1875L0.128906 3.07031V1.89844ZM23.2852 10.6055V10.3477C23.2852 9.37109 23.1055 8.625 22.7461 8.10938C22.3867 7.58594 21.8711 7.32422 21.1992 7.32422C20.4648 7.32422 19.875 7.61719 19.4297 8.20312C18.9844 8.78125 18.7422 9.58203 18.7031 10.6055H23.2852ZM26.4375 15.0234V16.8047C25.6172 17.2734 24.7891 17.625 23.9531 17.8594C23.1172 18.0938 22.2812 18.2109 21.4453 18.2109C19.6562 18.2109 18.2188 17.6602 17.1328 16.5586C16.0547 15.457 15.5156 14 15.5156 12.1875C15.5156 10.3672 16.0664 8.88281 17.168 7.73438C18.2773 6.57812 19.7031 6 21.4453 6C23.0234 6 24.25 6.47656 25.125 7.42969C26 8.375 26.4375 9.70703 26.4375 11.4258V11.8828H18.5859V11.9531C18.5859 13.3203 18.9297 14.3945 19.6172 15.1758C20.3047 15.957 21.25 16.3477 22.4531 16.3477C23.0859 16.3477 23.7305 16.2383 24.3867 16.0195C25.043 15.8008 25.7266 15.4688 26.4375 15.0234ZM35.4375 15.6445V11.7305C33.8594 12.082 32.7812 12.4648 32.2031 12.8789C31.625 13.293 31.3359 13.8555 31.3359 14.5664C31.3359 15.1211 31.4961 15.5625 31.8164 15.8906C32.1367 16.2109 32.5703 16.3711 33.1172 16.3711C33.4219 16.3711 33.7656 16.3125 34.1484 16.1953C34.5391 16.0703 34.9688 15.8867 35.4375 15.6445ZM35.4375 16.6289C34.625 17.1836 33.8867 17.5859 33.2227 17.8359C32.5586 18.0859 31.9219 18.2109 31.3125 18.2109C30.3906 18.2109 29.6367 17.9219 29.0508 17.3438C28.4648 16.7578 28.1719 16.0078 28.1719 15.0938C28.1719 13.9688 28.6016 13.1016 29.4609 12.4922C30.3203 11.8828 32.3242 11.2227 35.4727 10.5117V9.79688C35.4727 8.92969 35.2891 8.29688 34.9219 7.89844C34.5547 7.5 33.9766 7.30078 33.1875 7.30078C33.0156 7.30078 32.8359 7.3125 32.6484 7.33594C32.4609 7.35938 32.2578 7.39453 32.0391 7.44141V9.69141H29.8242C29.4414 9.69141 29.1602 9.62109 28.9805 9.48047C28.8086 9.33984 28.7227 9.11719 28.7227 8.8125C28.7227 8.0625 29.2266 7.41016 30.2344 6.85547C31.2422 6.30078 32.4805 6.02344 33.9492 6.02344C35.5977 6.02344 36.7578 6.33984 37.4297 6.97266C38.1016 7.60547 38.4375 8.70703 38.4375 10.2773V16.4883L38.7539 16.8281L40.0312 16.9453V18H35.7539L35.4375 16.6289ZM40.957 18V16.9219L42.2344 16.8281L42.5742 16.4648V8.17969H40.8398V7.21875L44.3672 6.09375H45.5273L45.4219 8.54297C45.8359 8.10547 46.2773 7.68359 46.7461 7.27734C47.2148 6.86328 47.707 6.47266 48.2227 6.10547C48.3555 6.08203 48.4609 6.06641 48.5391 6.05859C48.625 6.05078 48.6992 6.04688 48.7617 6.04688C49.0195 6.04688 49.2773 6.08203 49.5352 6.15234C49.8008 6.21484 50.0703 6.31641 50.3438 6.45703L50.0391 9.77344H48.7852C48.6055 9.47656 48.3867 9.25781 48.1289 9.11719C47.8789 8.97656 47.5781 8.90625 47.2266 8.90625C47.0234 8.90625 46.7773 8.96484 46.4883 9.08203C46.207 9.19141 45.8867 9.35547 45.5273 9.57422V16.4648L45.8789 16.8281L47.5898 16.9219V18H40.957ZM59.707 15.7148V7.69922C59.3477 7.58203 59.0234 7.49609 58.7344 7.44141C58.4453 7.37891 58.1758 7.34766 57.9258 7.34766C56.8789 7.34766 56.0391 7.76172 55.4062 8.58984C54.7812 9.41797 54.4688 10.5312 54.4688 11.9297C54.4688 13.2578 54.7539 14.2969 55.3242 15.0469C55.8945 15.7969 56.6836 16.1719 57.6914 16.1719C57.957 16.1719 58.2539 16.1367 58.582 16.0664C58.918 15.9883 59.293 15.8711 59.707 15.7148ZM59.707 2.35547H57.9492V1.39453L61.5234 0.269531H62.6367V16.4648L62.9648 16.8516L64.1953 16.9453V18H59.707V16.6523C58.9727 17.1914 58.3008 17.5859 57.6914 17.8359C57.082 18.0859 56.4883 18.2109 55.9102 18.2109C54.5508 18.2109 53.4336 17.6758 52.5586 16.6055C51.6914 15.5273 51.2578 14.1367 51.2578 12.4336C51.2578 10.5195 51.8281 8.96875 52.9688 7.78125C54.1172 6.59375 55.6094 6 57.4453 6C57.7891 6 58.1484 6.01953 58.5234 6.05859C58.8984 6.09766 59.293 6.15625 59.707 6.23438V2.35547ZM73.3477 10.6055V10.3477C73.3477 9.37109 73.168 8.625 72.8086 8.10938C72.4492 7.58594 71.9336 7.32422 71.2617 7.32422C70.5273 7.32422 69.9375 7.61719 69.4922 8.20312C69.0469 8.78125 68.8047 9.58203 68.7656 10.6055H73.3477ZM76.5 15.0234V16.8047C75.6797 17.2734 74.8516 17.625 74.0156 17.8594C73.1797 18.0938 72.3438 18.2109 71.5078 18.2109C69.7188 18.2109 68.2812 17.6602 67.1953 16.5586C66.1172 15.457 65.5781 14 65.5781 12.1875C65.5781 10.3672 66.1289 8.88281 67.2305 7.73438C68.3398 6.57812 69.7656 6 71.5078 6C73.0859 6 74.3125 6.47656 75.1875 7.42969C76.0625 8.375 76.5 9.70703 76.5 11.4258V11.8828H68.6484V11.9531C68.6484 13.3203 68.9922 14.3945 69.6797 15.1758C70.3672 15.957 71.3125 16.3477 72.5156 16.3477C73.1484 16.3477 73.793 16.2383 74.4492 16.0195C75.1055 15.8008 75.7891 15.4688 76.5 15.0234ZM78.0117 18V16.9219L79.2422 16.8281L79.582 16.4648V8.17969H77.9414V7.21875L81.3984 6.09375H82.5586V7.51172C83.4727 7.00391 84.2617 6.63281 84.9258 6.39844C85.5898 6.16406 86.168 6.04688 86.6602 6.04688C87.7539 6.04688 88.5703 6.375 89.1094 7.03125C89.6484 7.6875 89.918 8.6875 89.918 10.0312V16.4648L90.2344 16.8281L91.5 16.9219V18H85.6289V16.9219L86.6602 16.8281L86.9883 16.4648V10.7227C86.9883 9.83203 86.8164 9.17969 86.4727 8.76562C86.1289 8.34375 85.582 8.13281 84.832 8.13281C84.543 8.13281 84.207 8.16797 83.8242 8.23828C83.4492 8.30859 83.0273 8.41016 82.5586 8.54297V16.4648L82.8867 16.8281L83.9414 16.9219V18H78.0117ZM99.5039 1.89844H106.301V3.07031L104.859 3.1875L104.473 3.57422V8.83594H111.41V3.57422L111.059 3.1875L109.617 3.07031V1.89844H116.379V3.07031L114.984 3.1875L114.609 3.57422V16.3242L114.984 16.6992L116.379 16.8281V18H109.617V16.8281L111.059 16.6992L111.41 16.3242V10.2773H104.473V16.3242L104.859 16.6992L106.301 16.8281V18H99.5039V16.8281L100.898 16.6992L101.285 16.3242V3.57422L100.898 3.1875L99.5039 3.07031V1.89844ZM124.031 7.30078C123.156 7.30078 122.473 7.71875 121.98 8.55469C121.488 9.39062 121.242 10.5625 121.242 12.0703C121.242 13.6016 121.484 14.793 121.969 15.6445C122.461 16.4961 123.141 16.9219 124.008 16.9219C124.914 16.9219 125.613 16.5078 126.105 15.6797C126.598 14.8516 126.844 13.6719 126.844 12.1406C126.844 10.6172 126.594 9.42969 126.094 8.57812C125.602 7.72656 124.914 7.30078 124.031 7.30078ZM124.125 6.02344C125.969 6.02344 127.434 6.58203 128.52 7.69922C129.605 8.80859 130.148 10.3125 130.148 12.2109C130.148 14.0078 129.582 15.4531 128.449 16.5469C127.316 17.6406 125.812 18.1875 123.938 18.1875C122.133 18.1875 120.676 17.6367 119.566 16.5352C118.465 15.4258 117.914 13.9688 117.914 12.1641C117.914 10.3125 118.48 8.82812 119.613 7.71094C120.746 6.58594 122.25 6.02344 124.125 6.02344ZM134.812 6.02344H135.961V13.4648C135.961 14.418 136.137 15.1055 136.488 15.5273C136.848 15.9414 137.434 16.1484 138.246 16.1484C138.52 16.1484 138.82 16.1211 139.148 16.0664C139.484 16.0039 139.871 15.9062 140.309 15.7734V8.10938H138.75V7.14844L142.16 6.02344H143.262V16.4648L143.59 16.8281L144.844 16.9219V18H140.309V16.6758C139.473 17.2227 138.734 17.6172 138.094 17.8594C137.461 18.0938 136.855 18.2109 136.277 18.2109C135.168 18.2109 134.34 17.875 133.793 17.2031C133.254 16.5312 132.984 15.5 132.984 14.1094V8.10938H131.426V7.14844L134.812 6.02344ZM154.77 6.59766V9.79688H153.328L153.094 7.99219L152.801 7.72266C152.535 7.59766 152.27 7.50391 152.004 7.44141C151.738 7.37891 151.477 7.34766 151.219 7.34766C150.641 7.34766 150.191 7.47656 149.871 7.73438C149.551 7.98438 149.391 8.33594 149.391 8.78906C149.391 9.16406 149.516 9.48828 149.766 9.76172C150.016 10.0352 150.637 10.4141 151.629 10.8984L151.676 10.9219C153.98 12.0312 155.133 13.1602 155.133 14.3086C155.133 15.5352 154.695 16.5039 153.82 17.2148C152.953 17.918 151.758 18.2695 150.234 18.2695C149.641 18.2695 149.012 18.2188 148.348 18.1172C147.691 18.0156 147 17.8633 146.273 17.6602V14.1094H147.715L147.996 16.1719L148.242 16.4414C148.555 16.6055 148.879 16.7305 149.215 16.8164C149.551 16.9023 149.898 16.9453 150.258 16.9453C150.891 16.9453 151.387 16.793 151.746 16.4883C152.113 16.1758 152.297 15.75 152.297 15.2109C152.297 14.5312 151.605 13.8789 150.223 13.2539C149.754 13.043 149.391 12.8711 149.133 12.7383C148.141 12.2461 147.441 11.7617 147.035 11.2852C146.637 10.8008 146.438 10.2305 146.438 9.57422C146.438 8.50391 146.863 7.64062 147.715 6.98438C148.574 6.32812 149.719 6 151.148 6C151.758 6 152.363 6.05078 152.965 6.15234C153.566 6.24609 154.168 6.39453 154.77 6.59766ZM164.684 10.6055V10.3477C164.684 9.37109 164.504 8.625 164.145 8.10938C163.785 7.58594 163.27 7.32422 162.598 7.32422C161.863 7.32422 161.273 7.61719 160.828 8.20312C160.383 8.78125 160.141 9.58203 160.102 10.6055H164.684ZM167.836 15.0234V16.8047C167.016 17.2734 166.188 17.625 165.352 17.8594C164.516 18.0938 163.68 18.2109 162.844 18.2109C161.055 18.2109 159.617 17.6602 158.531 16.5586C157.453 15.457 156.914 14 156.914 12.1875C156.914 10.3672 157.465 8.88281 158.566 7.73438C159.676 6.57812 161.102 6 162.844 6C164.422 6 165.648 6.47656 166.523 7.42969C167.398 8.375 167.836 9.70703 167.836 11.4258V11.8828H159.984V11.9531C159.984 13.3203 160.328 14.3945 161.016 15.1758C161.703 15.957 162.648 16.3477 163.852 16.3477C164.484 16.3477 165.129 16.2383 165.785 16.0195C166.441 15.8008 167.125 15.4688 167.836 15.0234Z" fill="white"/>
</svg>
